<svg xmlns="http://www.w3.org/2000/svg" width="64" height="64" fill="none"><path fill="#50CDE4" d="M58 30.5h-2.55A23.53 23.53 0 0 0 33.5 8.55V6a1.5 1.5 0 1 0-3 0v2.55A23.53 23.53 0 0 0 8.55 30.5H6a1.5 1.5 0 1 0 0 3h2.55A23.53 23.53 0 0 0 30.5 55.45V58a1.5 1.5 0 1 0 3 0v-2.55A23.53 23.53 0 0 0 55.45 33.5H58a1.5 1.5 0 1 0 0-3M33.5 52.44V50a1.5 1.5 0 1 0-3 0v2.44A20.52 20.52 0 0 1 11.56 33.5H14a1.5 1.5 0 1 0 0-3h-2.44A20.52 20.52 0 0 1 30.5 11.56V14a1.5 1.5 0 1 0 3 0v-2.44A20.52 20.52 0 0 1 52.44 30.5H50a1.5 1.5 0 1 0 0 3h2.44A20.52 20.52 0 0 1 33.5 52.44M32 22.5a9.5 9.5 0 1 0 0 19 9.5 9.5 0 0 0 0-19m0 16a6.5 6.5 0 1 1 0-13 6.5 6.5 0 0 1 0 13"/></svg>