<svg width="64" height="64" viewBox="0 0 64 64" fill="none" xmlns="http://www.w3.org/2000/svg">
<path d="M58 30.5H55.45C55.078 24.8007 52.646 19.4312 48.6074 15.3926C44.5688 11.354 39.1993 8.92196 33.5 8.55V6C33.5 5.60218 33.342 5.22064 33.0607 4.93934C32.7794 4.65804 32.3978 4.5 32 4.5C31.6022 4.5 31.2206 4.65804 30.9393 4.93934C30.658 5.22064 30.5 5.60218 30.5 6V8.55C24.8007 8.92196 19.4312 11.354 15.3926 15.3926C11.354 19.4312 8.92196 24.8007 8.55 30.5H6C5.60218 30.5 5.22064 30.658 4.93934 30.9393C4.65804 31.2206 4.5 31.6022 4.5 32C4.5 32.3978 4.65804 32.7794 4.93934 33.0607C5.22064 33.342 5.60218 33.5 6 33.5H8.55C8.92196 39.1993 11.354 44.5688 15.3926 48.6074C19.4312 52.646 24.8007 55.078 30.5 55.45V58C30.5 58.3978 30.658 58.7794 30.9393 59.0607C31.2206 59.342 31.6022 59.5 32 59.5C32.3978 59.5 32.7794 59.342 33.0607 59.0607C33.342 58.7794 33.5 58.3978 33.5 58V55.45C39.1993 55.078 44.5688 52.646 48.6074 48.6074C52.646 44.5688 55.078 39.1993 55.45 33.5H58C58.3978 33.5 58.7794 33.342 59.0607 33.0607C59.342 32.7794 59.5 32.3978 59.5 32C59.5 31.6022 59.342 31.2206 59.0607 30.9393C58.7794 30.658 58.3978 30.5 58 30.5ZM33.5 52.44V50C33.5 49.6022 33.342 49.2206 33.0607 48.9393C32.7794 48.658 32.3978 48.5 32 48.5C31.6022 48.5 31.2206 48.658 30.9393 48.9393C30.658 49.2206 30.5 49.6022 30.5 50V52.44C25.598 52.0746 20.99 49.9618 17.5141 46.4859C14.0382 43.01 11.9254 38.402 11.56 33.5H14C14.3978 33.5 14.7794 33.342 15.0607 33.0607C15.342 32.7794 15.5 32.3978 15.5 32C15.5 31.6022 15.342 31.2206 15.0607 30.9393C14.7794 30.658 14.3978 30.5 14 30.5H11.56C11.9254 25.598 14.0382 20.99 17.5141 17.5141C20.99 14.0382 25.598 11.9254 30.5 11.56V14C30.5 14.3978 30.658 14.7794 30.9393 15.0607C31.2206 15.342 31.6022 15.5 32 15.5C32.3978 15.5 32.7794 15.342 33.0607 15.0607C33.342 14.7794 33.5 14.3978 33.5 14V11.56C38.402 11.9254 43.01 14.0382 46.4859 17.5141C49.9618 20.99 52.0746 25.598 52.44 30.5H50C49.6022 30.5 49.2206 30.658 48.9393 30.9393C48.658 31.2206 48.5 31.6022 48.5 32C48.5 32.3978 48.658 32.7794 48.9393 33.0607C49.2206 33.342 49.6022 33.5 50 33.5H52.44C52.0746 38.402 49.9618 43.01 46.4859 46.4859C43.01 49.9618 38.402 52.0746 33.5 52.44ZM32 22.5C30.1211 22.5 28.2843 23.0572 26.7221 24.101C25.1598 25.1449 23.9422 26.6286 23.2231 28.3645C22.5041 30.1004 22.316 32.0105 22.6825 33.8534C23.0491 35.6962 23.9539 37.3889 25.2825 38.7175C26.6111 40.0461 28.3038 40.9509 30.1466 41.3175C31.9895 41.684 33.8996 41.4959 35.6355 40.7769C37.3714 40.0578 38.8551 38.8402 39.899 37.2779C40.9428 35.7156 41.5 33.8789 41.5 32C41.5 29.4804 40.4991 27.0641 38.7175 25.2825C36.9359 23.5009 34.5196 22.5 32 22.5ZM32 38.5C30.7144 38.5 29.4577 38.1188 28.3888 37.4046C27.3199 36.6903 26.4868 35.6752 25.9948 34.4874C25.5028 33.2997 25.3741 31.9928 25.6249 30.7319C25.8757 29.471 26.4948 28.3128 27.4038 27.4038C28.3128 26.4948 29.471 25.8757 30.7319 25.6249C31.9928 25.3741 33.2997 25.5028 34.4874 25.9948C35.6752 26.4868 36.6903 27.3199 37.4046 28.3888C38.1188 29.4577 38.5 30.7144 38.5 32C38.5 33.7239 37.8152 35.3772 36.5962 36.5962C35.3772 37.8152 33.7239 38.5 32 38.5Z" fill="#50CDE4"/>
</svg>
