<svg xmlns="http://www.w3.org/2000/svg" width="64" height="64" fill="none"><path fill="#50CDE4" d="M61.37 31.392c-.085-.195-2.165-4.807-6.81-9.452C50.25 17.635 42.845 12.5 32 12.5s-18.25 5.135-22.56 9.44c-4.645 4.645-6.725 9.25-6.81 9.452a1.5 1.5 0 0 0 0 1.22c.085.193 2.165 4.805 6.81 9.45C13.75 46.367 21.155 51.5 32 51.5s18.25-5.133 22.56-9.438c4.645-4.645 6.725-9.25 6.81-9.45a1.5 1.5 0 0 0 0-1.22M32 48.5c-7.845 0-14.695-2.855-20.363-8.483A33.7 33.7 0 0 1 5.672 32a33.6 33.6 0 0 1 5.965-8.015C17.305 18.355 24.155 15.5 32 15.5s14.695 2.855 20.362 8.485A33.6 33.6 0 0 1 58.327 32C56.735 35.052 48.75 48.5 32 48.5m0-28A11.5 11.5 0 1 0 43.5 32 11.515 11.515 0 0 0 32 20.5m0 20a8.5 8.5 0 1 1 0-17 8.5 8.5 0 0 1 0 17"/></svg>