<svg xmlns="http://www.w3.org/2000/svg" width="32" height="32" fill="none" viewBox="0 0 36 36"><path fill="#50CDE4" d="M18 11.25A6.75 6.75 0 1 0 24.75 18 6.757 6.757 0 0 0 18 11.25m0 10.125a3.374 3.374 0 1 1 0-6.749 3.374 3.374 0 0 1 0 6.749m6.75-18.562h-13.5a8.447 8.447 0 0 0-8.437 8.437v13.5a8.447 8.447 0 0 0 8.437 8.438h13.5a8.447 8.447 0 0 0 8.438-8.438v-13.5a8.447 8.447 0 0 0-8.438-8.437m5.063 21.937a5.06 5.06 0 0 1-5.063 5.063h-13.5a5.063 5.063 0 0 1-5.062-5.063v-13.5a5.063 5.063 0 0 1 5.062-5.062h13.5a5.06 5.06 0 0 1 5.063 5.062zm-2.25-14.062a2.25 2.25 0 1 1-4.5 0 2.25 2.25 0 0 1 4.5 0"/></svg>