<svg xmlns="http://www.w3.org/2000/svg" width="32" height="32" viewBox="0 0 36 36" fill="none">
  <path d="M18 11.25C16.665 11.25 15.3599 11.6459 14.2499 12.3876C13.1399 13.1293 12.2747 14.1835 11.7638 15.4169C11.2529 16.6503 11.1192 18.0075 11.3797 19.3169C11.6402 20.6262 12.283 21.829 13.227 22.773C14.171 23.717 15.3738 24.3599 16.6831 24.6203C17.9925 24.8808 19.3497 24.7471 20.5831 24.2362C21.8165 23.7253 22.8707 22.8601 23.6124 21.7501C24.3541 20.6401 24.75 19.335 24.75 18C24.7481 16.2104 24.0364 14.4946 22.7709 13.2291C21.5054 11.9636 19.7896 11.2519 18 11.25ZM18 21.375C17.3325 21.375 16.68 21.1771 16.125 20.8062C15.5699 20.4354 15.1374 19.9083 14.8819 19.2916C14.6265 18.6749 14.5596 17.9963 14.6898 17.3416C14.8201 16.6869 15.1415 16.0855 15.6135 15.6135C16.0855 15.1415 16.6869 14.8201 17.3416 14.6898C17.9963 14.5596 18.6749 14.6265 19.2916 14.8819C19.9083 15.1374 20.4354 15.5699 20.8062 16.125C21.1771 16.68 21.375 17.3325 21.375 18C21.375 18.8951 21.0194 19.7536 20.3865 20.3865C19.7536 21.0194 18.8951 21.375 18 21.375ZM24.75 2.8125H11.25C9.01304 2.81511 6.86844 3.70489 5.28666 5.28666C3.70489 6.86844 2.81511 9.01304 2.8125 11.25V24.75C2.81511 26.987 3.70489 29.1316 5.28666 30.7133C6.86844 32.2951 9.01304 33.1849 11.25 33.1875H24.75C26.987 33.1849 29.1316 32.2951 30.7133 30.7133C32.2951 29.1316 33.1849 26.987 33.1875 24.75V11.25C33.1849 9.01304 32.2951 6.86844 30.7133 5.28666C29.1316 3.70489 26.987 2.81511 24.75 2.8125ZM29.8125 24.75C29.8125 26.0927 29.2791 27.3803 28.3297 28.3297C27.3803 29.2791 26.0927 29.8125 24.75 29.8125H11.25C9.90734 29.8125 8.61967 29.2791 7.67027 28.3297C6.72087 27.3803 6.1875 26.0927 6.1875 24.75V11.25C6.1875 9.90734 6.72087 8.61967 7.67027 7.67027C8.61967 6.72087 9.90734 6.1875 11.25 6.1875H24.75C26.0927 6.1875 27.3803 6.72087 28.3297 7.67027C29.2791 8.61967 29.8125 9.90734 29.8125 11.25V24.75ZM27.5625 10.6875C27.5625 11.1325 27.4305 11.5675 27.1833 11.9375C26.9361 12.3075 26.5847 12.5959 26.1735 12.7662C25.7624 12.9365 25.31 12.9811 24.8735 12.8943C24.4371 12.8075 24.0362 12.5932 23.7215 12.2785C23.4068 11.9638 23.1925 11.5629 23.1057 11.1265C23.0189 10.69 23.0635 10.2376 23.2338 9.82646C23.4041 9.41533 23.6925 9.06393 24.0625 8.81669C24.4325 8.56946 24.8675 8.4375 25.3125 8.4375C25.9092 8.4375 26.4815 8.67455 26.9035 9.09651C27.3254 9.51847 27.5625 10.0908 27.5625 10.6875Z" fill="#50CDE4"/>
</svg>