<svg xmlns="http://www.w3.org/2000/svg" width="32" height="32" fill="none" viewBox="0 0 36 36"><path fill="#50CDE4" d="M30.375 2.813H5.625a2.813 2.813 0 0 0-2.812 2.812v24.75a2.81 2.81 0 0 0 2.812 2.813h24.75a2.81 2.81 0 0 0 2.813-2.813V5.625a2.81 2.81 0 0 0-2.813-2.812m-.562 27H6.188V6.188h23.625zM15.75 24.75v-7.875a1.687 1.687 0 0 1 3.014-1.042A5.625 5.625 0 0 1 27 20.813v3.937a1.687 1.687 0 1 1-3.375 0v-3.937a2.25 2.25 0 0 0-4.5 0v3.937a1.687 1.687 0 1 1-3.375 0m-2.25-7.875v7.875a1.687 1.687 0 1 1-3.375 0v-7.875a1.687 1.687 0 1 1 3.375 0M9.563 11.25a2.25 2.25 0 1 1 4.5 0 2.25 2.25 0 0 1-4.5 0"/></svg>