<svg xmlns="http://www.w3.org/2000/svg" width="200" height="200" version="1.0" viewBox="0 0 375 375"><defs><clipPath id="a"><path d="M102.68 102.68h169.64v169.64H102.68Zm0 0"/></clipPath><clipPath id="b"><path d="M187.5 102.68c-46.844 0-84.82 37.976-84.82 84.82s37.976 84.82 84.82 84.82 84.82-37.976 84.82-84.82-37.976-84.82-84.82-84.82m0 0"/></clipPath><clipPath id="c"><path d="M84 91h207v207H84Zm0 0"/></clipPath><clipPath id="d"><path d="M330.23 223.703 158.32 337.66 44.363 165.75l171.91-113.957Zm0 0"/></clipPath><clipPath id="e"><path d="m158.563 337.496 171.91-113.953L216.52 51.633 44.605 165.586Zm0 0"/></clipPath><clipPath id="f"><path d="m158.563 337.496 171.91-113.953L216.52 51.633 44.605 165.586Zm0 0"/></clipPath></defs><g clip-path="url(#a)"><g clip-path="url(#b)"><path fill="#fff" d="M102.68 102.68h169.64v169.64H102.68Zm0 0"/></g></g><g clip-path="url(#c)"><g clip-path="url(#d)"><g clip-path="url(#e)"><g clip-path="url(#f)"><path d="M244.52 280.52c-47.399 31.418-111.516 18.418-142.934-28.977-31.418-47.398-18.418-111.516 28.977-142.934s111.515-18.418 142.933 28.977c31.418 47.398 18.418 111.516-28.976 142.934m-40.649-61.063c-.242.129-1.105.496-3.363.664-7.492.563-14.95.781-22.418 1.246-2.84.176-4.528-.668-6.02-3.02-3.707-5.968-6.718-10.324-8.918-13.5-3.097-4.476-4.804-6.945-4.925-8.745-.122-1.801 1.234-4.485 3.691-9.36 1.66-3.289 3.934-7.797 6.644-13.84 1.278-2.851 2.875-3.906 6.106-4.043 16.754-.742 34.871-1.59 53.898-2.761 2.36-.075 3.797-2.97 2.438-4.895-1.281-1.93-2.504-3.851-3.719-5.746-3.148-4.93-6.12-9.582-9.68-13.965-2.41-2.969-7.453-4.203-11.117-4.094-15.504.47-30.726 1.426-46.062 2.18-3.04.152-5.668.965-7.88 2.43-2.245 1.488-4.058 3.652-5.421 6.484a6155 6155 0 0 1-19.848 40.95c-2.777 5.68-2.324 11.109 1.38 16.605a2944 2944 0 0 1 25.39 38.297c3.398 5.207 7.875 7.707 13.297 7.433 12.68-.64 25.351-1.363 38.027-2.086l13.672-.777a3.13 3.13 0 0 0 1.562-.52l3.473-2.3c3.008-3.653 5.246-10.367 7.777-14.746 5.278-10.621 10.735-21.598 15.86-32.536 5.164-10.058-3.555-23.68-14.88-22.976-15.558.46-31.323 1.434-46.565 2.379l-4.747.289c-4.304.61-7.097 4.101-8.312 7.55-4.418 9.067-2.938 16.403 4.656 23.079 2.102 1.844 5.297 2.02 7.016 1.96 7.762-.265 15.976-.706 24.164-1.105-1.774 3.54-3.324 6.614-5.176 9.469m-21.851-15.074c.203.144 1.148.453 2.64.406 6.918-.246 13.922-.598 21.332-.969l8.176-.406c2.352-.191 4.117 2.55 2.953 4.61-2.676 5.117-5.035 10.421-8.09 15.078-1.277 1.949-3.836 3.003-8.05 3.316-7.56.57-14.989.785-22.5 1.254-5.09.316-9.043-1.68-11.758-5.965-3.641-5.863-6.602-10.14-8.762-13.266-7.754-11.207-7.832-12.351-1.68-24.539 1.723-3.414 3.867-7.668 6.516-13.582 2.238-5.004 6.039-7.535 11.594-7.765 15.125-.672 31.37-1.426 48.379-2.43-3.274-5.11-6.458-10.21-10.07-14.648-.716-.88-3.5-1.84-6.028-1.762-10.82.32-21.82.91-32.461 1.476-4.496.239-8.988.477-13.484.696-3.786.191-6.227 1.832-7.915 5.34a6260 6260 0 0 1-19.867 40.992c-1.765 3.617-1.484 6.699.942 10.3a3011 3011 0 0 1 25.441 38.376c2.813 4.312 5.738 4.68 7.692 4.582 12.667-.641 25.328-1.364 37.988-2.086l12.82-.73 2.047-1.356a3523 3523 0 0 1 6.324-12.766c5.262-10.586 10.7-21.535 15.797-32.406 3.09-5.985-2.2-14.414-8.98-13.985-15.453.454-31.168 1.426-46.36 2.368l-4.644.277c-.512.148-1.692 1.3-2.067 1.664-.347.559-.726 1.691-1.062 2.363-3.14 6.45-2.258 10.817 3.137 15.563m0 0"/></g></g></g></g></svg>