<svg xmlns="http://www.w3.org/2000/svg" xmlns:xlink="http://www.w3.org/1999/xlink" width="200" zoomAndPan="magnify" viewBox="0 0 375 374.999991" height="200" preserveAspectRatio="xMidYMid meet" version="1.0"><defs><clipPath id="9d390de8cf"><path d="M 102.679688 102.679688 L 272.320312 102.679688 L 272.320312 272.320312 L 102.679688 272.320312 Z M 102.679688 102.679688 " clip-rule="nonzero"/></clipPath><clipPath id="a653559d56"><path d="M 187.5 102.679688 C 140.65625 102.679688 102.679688 140.65625 102.679688 187.5 C 102.679688 234.34375 140.65625 272.320312 187.5 272.320312 C 234.34375 272.320312 272.320312 234.34375 272.320312 187.5 C 272.320312 140.65625 234.34375 102.679688 187.5 102.679688 Z M 187.5 102.679688 " clip-rule="nonzero"/></clipPath><clipPath id="da049a72f7"><path d="M 84 91 L 291 91 L 291 298 L 84 298 Z M 84 91 " clip-rule="nonzero"/></clipPath><clipPath id="659eb1f40b"><path d="M 330.230469 223.703125 L 158.320312 337.660156 L 44.363281 165.75 L 216.273438 51.792969 Z M 330.230469 223.703125 " clip-rule="nonzero"/></clipPath><clipPath id="a8a2389cbd"><path d="M 158.5625 337.496094 L 330.472656 223.542969 L 216.519531 51.632812 L 44.605469 165.585938 Z M 158.5625 337.496094 " clip-rule="nonzero"/></clipPath><clipPath id="e354b4e259"><path d="M 158.5625 337.496094 L 330.472656 223.542969 L 216.519531 51.632812 L 44.605469 165.585938 Z M 158.5625 337.496094 " clip-rule="nonzero"/></clipPath></defs><g clip-path="url(#9d390de8cf)"><g clip-path="url(#a653559d56)"><path fill="#ffffff" d="M 102.679688 102.679688 L 272.320312 102.679688 L 272.320312 272.320312 L 102.679688 272.320312 Z M 102.679688 102.679688 " fill-opacity="1" fill-rule="nonzero"/></g></g><g clip-path="url(#da049a72f7)"><g clip-path="url(#659eb1f40b)"><g clip-path="url(#a8a2389cbd)"><g clip-path="url(#e354b4e259)"><path fill="#000000" d="M 244.519531 280.519531 C 197.121094 311.9375 133.003906 298.9375 101.585938 251.542969 C 70.167969 204.144531 83.167969 140.027344 130.5625 108.609375 C 177.957031 77.191406 242.078125 90.191406 273.496094 137.585938 C 304.914062 184.984375 291.914062 249.101562 244.519531 280.519531 Z M 203.871094 219.457031 C 203.628906 219.585938 202.765625 219.953125 200.507812 220.121094 C 193.015625 220.683594 185.558594 220.902344 178.089844 221.367188 C 175.25 221.542969 173.5625 220.699219 172.070312 218.347656 C 168.363281 212.378906 165.351562 208.023438 163.152344 204.847656 C 160.054688 200.371094 158.347656 197.902344 158.226562 196.101562 C 158.105469 194.300781 159.460938 191.617188 161.917969 186.742188 C 163.578125 183.453125 165.851562 178.945312 168.5625 172.902344 C 169.839844 170.050781 171.4375 168.996094 174.667969 168.859375 C 191.421875 168.117188 209.539062 167.269531 228.566406 166.097656 C 230.925781 166.023438 232.363281 163.128906 231.003906 161.203125 C 229.722656 159.273438 228.5 157.351562 227.285156 155.457031 C 224.136719 150.527344 221.164062 145.875 217.605469 141.492188 C 215.195312 138.523438 210.152344 137.289062 206.488281 137.398438 C 190.984375 137.867188 175.761719 138.824219 160.425781 139.578125 C 157.386719 139.730469 154.757812 140.542969 152.546875 142.007812 C 150.300781 143.496094 148.488281 145.660156 147.125 148.492188 C 140.871094 161.519531 134.382812 174.914062 127.277344 189.441406 C 124.5 195.121094 124.953125 200.550781 128.65625 206.046875 C 136.890625 218.25 145.195312 230.777344 154.046875 244.34375 C 157.445312 249.550781 161.921875 252.050781 167.34375 251.777344 C 180.023438 251.136719 192.695312 250.414062 205.371094 249.691406 L 219.042969 248.914062 C 219.597656 248.882812 220.136719 248.707031 220.605469 248.394531 C 220.605469 248.394531 224.078125 246.09375 224.078125 246.09375 C 227.085938 242.441406 229.324219 235.726562 231.855469 231.347656 C 237.132812 220.726562 242.589844 209.75 247.714844 198.8125 C 252.878906 188.753906 244.160156 175.132812 232.835938 175.835938 C 217.277344 176.296875 201.511719 177.269531 186.269531 178.214844 C 186.269531 178.214844 181.523438 178.503906 181.523438 178.503906 C 177.21875 179.113281 174.425781 182.605469 173.210938 186.054688 C 168.792969 195.121094 170.273438 202.457031 177.867188 209.132812 C 179.96875 210.976562 183.164062 211.152344 184.882812 211.09375 C 192.644531 210.828125 200.859375 210.386719 209.046875 209.988281 C 207.273438 213.527344 205.722656 216.601562 203.871094 219.457031 Z M 182.019531 204.382812 C 182.222656 204.527344 183.167969 204.835938 184.660156 204.789062 C 191.578125 204.542969 198.582031 204.191406 205.992188 203.820312 L 214.167969 203.414062 C 216.519531 203.222656 218.285156 205.964844 217.121094 208.023438 C 214.445312 213.140625 212.085938 218.445312 209.03125 223.101562 C 207.753906 225.050781 205.195312 226.105469 200.980469 226.417969 C 193.421875 226.988281 185.992188 227.203125 178.480469 227.671875 C 173.390625 227.988281 169.4375 225.992188 166.722656 221.707031 C 163.082031 215.84375 160.121094 211.566406 157.960938 208.441406 C 150.207031 197.234375 150.128906 196.089844 156.28125 183.902344 C 158.003906 180.488281 160.148438 176.234375 162.796875 170.320312 C 165.035156 165.316406 168.835938 162.785156 174.390625 162.554688 C 189.515625 161.882812 205.761719 161.128906 222.769531 160.125 C 219.496094 155.015625 216.3125 149.914062 212.699219 145.476562 C 211.984375 144.597656 209.199219 143.636719 206.671875 143.714844 C 195.851562 144.035156 184.851562 144.625 174.210938 145.191406 C 169.714844 145.429688 165.222656 145.667969 160.726562 145.886719 C 156.941406 146.078125 154.5 147.71875 152.8125 151.226562 C 146.554688 164.265625 140.054688 177.675781 132.945312 192.21875 C 131.179688 195.835938 131.460938 198.917969 133.886719 202.519531 C 142.136719 214.753906 150.460938 227.304688 159.328125 240.894531 C 162.140625 245.207031 165.066406 245.574219 167.019531 245.476562 C 179.6875 244.835938 192.347656 244.113281 205.007812 243.390625 L 217.828125 242.660156 L 219.875 241.304688 C 221.972656 237.042969 224.085938 232.789062 226.199219 228.539062 C 231.460938 217.953125 236.898438 207.003906 241.996094 196.132812 C 245.085938 190.148438 239.796875 181.71875 233.015625 182.148438 C 217.5625 182.601562 201.847656 183.574219 186.65625 184.515625 L 182.011719 184.792969 C 181.5 184.941406 180.320312 186.09375 179.945312 186.457031 C 179.597656 187.015625 179.21875 188.148438 178.882812 188.820312 C 175.742188 195.269531 176.625 199.636719 182.019531 204.382812 Z M 182.019531 204.382812 " fill-opacity="1" fill-rule="nonzero"/></g></g></g></g></svg>