<svg xmlns="http://www.w3.org/2000/svg" width="16" height="16" fill="none"><g clip-path="url(#a)"><mask id="b" width="18" height="17" x="-1" y="-1" maskUnits="userSpaceOnUse" style="mask-type:luminance"><path fill="#fff" d="M-.03-.068h16.06V15.99H-.03z"/></mask><g mask="url(#b)"><mask id="c" width="24" height="24" x="-4" y="-4" maskUnits="userSpaceOnUse" style="mask-type:luminance"><path fill="#fff" d="m19.073 10.227-13.337 8.84-8.84-13.336 13.336-8.84z"/></mask><g mask="url(#c)"><mask id="d" width="24" height="24" x="-4" y="-4" maskUnits="userSpaceOnUse" style="mask-type:luminance"><path fill="#fff" d="m5.755 19.054 13.336-8.84-8.84-13.336-13.336 8.84z"/></mask><g mask="url(#d)"><mask id="e" width="24" height="24" x="-4" y="-4" maskUnits="userSpaceOnUse" style="mask-type:luminance"><path fill="#fff" d="m5.755 19.054 13.336-8.84-8.84-13.336-13.336 8.84z"/></mask><g mask="url(#e)"><path fill="#000" d="M12.422 14.67C8.743 17.108 3.768 16.1 1.33 12.422S-.1 3.768 3.579 1.33C7.256-1.108 12.232-.1 14.67 3.579c2.438 3.678 1.43 8.653-2.248 11.091M9.267 9.932c-.019.01-.086.038-.26.051-.582.044-1.16.06-1.74.097-.22.014-.352-.052-.468-.234a24 24 0 0 0-.692-1.048c-.24-.347-.372-.539-.382-.679s.095-.347.285-.723l.002-.003c.129-.255.305-.605.515-1.074.1-.221.223-.303.474-.314 1.3-.057 2.706-.123 4.183-.214.183-.006.294-.23.189-.38q-.149-.225-.289-.446a12 12 0 0 0-.751-1.083c-.187-.23-.578-.327-.863-.318-1.203.036-2.384.11-3.574.17q-.354.016-.611.188a1.2 1.2 0 0 0-.421.503c-.486 1.01-.989 2.05-1.54 3.177-.216.441-.18.863.107 1.289.639.947 1.283 1.92 1.97 2.972.264.404.611.598 1.032.577q1.472-.077 2.943-.162h.008l1.06-.06a.24.24 0 0 0 .122-.04l.27-.18c.233-.283.406-.804.603-1.144l.012-.024c.406-.816.825-1.66 1.218-2.5.401-.78-.275-1.838-1.154-1.783-1.208.035-2.43.11-3.614.184l-.368.023c-.334.047-.55.318-.645.586-.343.703-.228 1.272.361 1.79.163.144.411.157.545.153.602-.021 1.24-.055 1.875-.086a8 8 0 0 1-.402.735m-1.695-1.17c.015.011.089.035.204.031.533-.019 1.072-.046 1.642-.074h.014l.634-.032c.183-.015.32.198.23.357-.208.397-.391.81-.628 1.17-.1.152-.298.233-.625.258-.587.044-1.163.06-1.746.097a.94.94 0 0 1-.912-.463c-.28-.45-.508-.78-.675-1.022l-.005-.007c-.602-.87-.608-.959-.13-1.904.133-.265.3-.595.505-1.054.174-.389.469-.585.9-.603 1.173-.052 2.434-.11 3.754-.188-.254-.397-.501-.793-.782-1.137-.055-.068-.271-.143-.467-.137-.826.025-1.666.07-2.48.113l-.04.002h-.01q-.517.029-1.036.054c-.293.015-.483.142-.614.414-.485 1.012-.99 2.052-1.542 3.181-.137.28-.115.52.073.8.64.949 1.287 1.923 1.975 2.977.218.335.445.363.597.356q1.474-.077 2.947-.162l.995-.057.16-.105q.244-.495.49-.99c.408-.822.83-1.672 1.226-2.515.24-.465-.171-1.119-.697-1.085-1.2.035-2.419.11-3.598.183l-.36.022a.7.7 0 0 0-.158.127l-.002.002c-.027.043-.057.131-.083.183-.244.5-.175.84.244 1.208"/><path fill="#000" fill-rule="evenodd" d="M9.267 9.932c-.019.01-.086.038-.26.051-.582.044-1.16.06-1.74.097-.22.014-.352-.052-.468-.234a24 24 0 0 0-.692-1.048c-.24-.347-.372-.539-.382-.679s.095-.347.285-.723l.002-.003c.129-.255.305-.605.515-1.074.1-.221.223-.303.474-.314 1.3-.057 2.706-.123 4.183-.214.183-.006.294-.23.189-.38q-.149-.225-.289-.446a12 12 0 0 0-.751-1.083c-.187-.23-.578-.327-.863-.318-1.203.036-2.384.11-3.574.17q-.354.016-.611.188a1.2 1.2 0 0 0-.421.503c-.486 1.01-.989 2.05-1.54 3.177-.216.441-.18.863.107 1.289.639.947 1.283 1.92 1.97 2.972.264.404.611.598 1.032.577q1.472-.077 2.943-.162h.008l1.06-.06a.24.24 0 0 0 .122-.04l.27-.18c.233-.283.406-.804.603-1.144l.012-.024c.406-.816.825-1.66 1.218-2.5.401-.78-.275-1.838-1.154-1.783-1.208.035-2.43.11-3.614.184l-.368.023c-.334.047-.55.318-.645.586-.343.703-.228 1.272.361 1.79.163.144.411.157.545.153.602-.021 1.24-.055 1.875-.086a8 8 0 0 1-.402.735m-1.49-1.139a.4.4 0 0 1-.205-.031c-.42-.368-.488-.707-.244-1.208.026-.052.056-.14.083-.183l.002-.002a.7.7 0 0 1 .158-.127l.36-.022c1.18-.073 2.399-.148 3.598-.183.526-.034.936.62.697 1.085-.396.843-.818 1.693-1.226 2.514q-.246.495-.49.991l-.16.105-.995.057q-1.473.086-2.947.162c-.152.007-.379-.021-.597-.356a233 233 0 0 0-1.975-2.978c-.188-.28-.21-.518-.073-.799.552-1.129 1.057-2.17 1.542-3.181.131-.272.32-.4.614-.414q.518-.026 1.036-.054h.01l.04-.002c.814-.044 1.654-.088 2.48-.113.196-.006.412.069.467.137.28.344.528.74.782 1.137-1.32.077-2.58.136-3.754.188-.431.018-.726.214-.9.603-.206.459-.372.789-.506 1.054-.477.945-.471 1.034.13 1.904l.006.007c.167.242.395.572.675 1.022.21.333.517.488.912.463.583-.036 1.16-.053 1.746-.097.327-.024.526-.106.625-.258.237-.36.42-.773.627-1.17.09-.16-.046-.372-.229-.357l-.634.031h-.014c-.57.03-1.11.056-1.642.075" clip-rule="evenodd"/><path fill="#fff" fill-rule="evenodd" d="M9.6 9.958c-.023.012-.106.048-.325.064-.727.055-1.45.076-2.174.121-.276.017-.44-.065-.584-.293a29 29 0 0 0-.865-1.309c-.3-.434-.466-.673-.477-.848-.012-.174.119-.433.356-.903l.002-.005c.16-.318.381-.756.644-1.342.124-.276.279-.378.592-.392 1.625-.072 3.381-.154 5.227-.267.228-.008.368-.288.236-.475q-.185-.28-.36-.557c-.306-.478-.594-.93-.94-1.354C10.7 2.11 10.21 1.99 9.856 2c-1.504.045-2.98.138-4.467.211q-.443.023-.764.236a1.53 1.53 0 0 0-.526.628 597 597 0 0 1-1.924 3.971c-.27.551-.226 1.078.133 1.61a286 286 0 0 1 2.462 3.714c.33.505.764.747 1.29.721 1.226-.062 2.451-.132 3.677-.202h.01l1.326-.076a.3.3 0 0 0 .152-.05l.336-.223c.292-.354.509-1.005.754-1.43l.015-.03c.507-1.02 1.031-2.075 1.523-3.125.501-.975-.344-2.296-1.443-2.228-1.508.045-3.037.139-4.515.23l-.46.029c-.418.059-.689.397-.806.732-.429.879-.285 1.59.451 2.238.204.179.514.196.68.19.753-.026 1.55-.069 2.344-.107a10 10 0 0 1-.502.918M7.739 8.536a.54.54 0 0 1-.256-.04c-.523-.46-.609-.884-.304-1.509.032-.065.069-.175.103-.23l.003-.002c.039-.038.149-.144.197-.159l.45-.026c1.474-.092 2.997-.186 4.496-.23.658-.042 1.17.776.87 1.356a154 154 0 0 1-1.531 3.143q-.308.618-.613 1.237l-.199.132-1.243.07q-1.841.107-3.684.203c-.19.01-.473-.026-.746-.444a292 292 0 0 0-2.467-3.722c-.235-.349-.262-.648-.09-.998.689-1.41 1.319-2.711 1.926-3.975.163-.34.4-.5.767-.518q.648-.032 1.294-.067h.014l.05-.003c1.016-.054 2.065-.11 3.097-.14.245-.008.515.085.585.17.35.43.659.925.976 1.42-1.649.098-3.224.17-4.69.236-.54.022-.908.268-1.125.753-.257.574-.465.986-.632 1.317-.597 1.182-.589 1.293.163 2.38l.006.009c.21.302.494.714.844 1.277.263.416.646.61 1.14.579.728-.046 1.449-.067 2.181-.122.41-.03.657-.133.781-.322.296-.451.525-.966.785-1.462.113-.2-.059-.465-.287-.447l-.793.04H9.79c-.712.036-1.386.07-2.051.094" clip-rule="evenodd"/></g></g></g></g></g><defs><clipPath id="a"><path fill="#fff" d="M0 0h16v16H0z"/></clipPath></defs></svg>