<svg xmlns="http://www.w3.org/2000/svg" width="240" height="82" fill="none" viewBox="0 0 260 82"><g clip-path="url(#a)"><mask id="b" width="80" height="80" x="4" y="0" maskUnits="userSpaceOnUse" style="mask-type:luminance"><path fill="#fff" d="M4.16.173h79.733v79.734H4.16z"/></mask><g mask="url(#b)"><mask id="c" width="111" height="111" x="-11" y="-15" maskUnits="userSpaceOnUse" style="mask-type:luminance"><path fill="#fff" d="M99.044 51.19 32.869 95.057-10.998 28.88 55.18-14.988z"/></mask><g mask="url(#c)"><mask id="d" width="111" height="112" x="-11" y="-16" maskUnits="userSpaceOnUse" style="mask-type:luminance"><path fill="#fff" d="M32.901 95.035 99.077 51.17 55.21-15.007-10.966 28.86z"/></mask><g mask="url(#d)"><path fill="#fff" d="M65.972 73.111C47.737 85.201 23.067 80.2 10.977 61.964-1.11 43.726 3.892 19.056 22.127 6.969 40.362-5.121 65.033-.12 77.123 18.116c12.087 18.238 7.087 42.908-11.15 54.995M50.335 49.617c-.095.051-.426.19-1.295.257-2.884.217-5.753.3-8.626.48-1.094.067-1.742-.258-2.316-1.163a114 114 0 0 0-3.431-5.194c-1.192-1.723-1.847-2.673-1.896-3.367-.046-.69.474-1.725 1.422-3.599.636-1.267 1.511-3 2.554-5.327.493-1.097 1.108-1.503 2.35-1.555 6.447-.287 13.418-.612 20.738-1.062.908-.03 1.46-1.142.937-1.884-.49-.743-.964-1.482-1.43-2.21-1.21-1.896-2.356-3.687-3.724-5.374-.928-1.143-2.868-1.617-4.279-1.573-5.963.178-11.819.547-17.723.837-1.167.06-2.18.37-3.03.934q-1.297.862-2.086 2.497a2289 2289 0 0 1-7.638 15.754c-1.067 2.186-.893 4.274.534 6.39 3.166 4.696 6.362 9.516 9.766 14.735 1.308 2.005 3.03 2.966 5.116 2.86 4.88-.246 9.756-.525 14.633-.801l5.26-.301c.214-.01.422-.078.601-.198l1.335-.885c1.16-1.409 2.02-3.992 2.993-5.677 2.031-4.084 4.13-8.31 6.102-12.518 1.988-3.867-1.368-9.11-5.725-8.84-5.986.176-12.05.553-17.916.916l-1.825.11c-1.658.236-2.733 1.58-3.199 2.907-1.7 3.488-1.13 6.31 1.793 8.878.807.712 2.037.78 2.697.755 2.988-.103 6.148-.27 9.298-.425-.682 1.362-1.278 2.546-1.99 3.643m-8.407-5.799c.076.054.439.173 1.016.154 2.66-.092 5.354-.227 8.206-.37l3.147-.158c.904-.073 1.582.983 1.135 1.774-1.03 1.97-1.937 4.009-3.112 5.802-.493.75-1.476 1.156-3.099 1.275-2.908.22-5.766.303-8.655.482-1.961.122-3.48-.647-4.526-2.294a113 113 0 0 0-3.372-5.102c-2.982-4.315-3.012-4.756-.645-9.444.661-1.314 1.487-2.95 2.506-5.224.864-1.926 2.326-2.901 4.463-2.99 5.818-.258 12.068-.548 18.614-.935-1.259-1.966-2.486-3.927-3.875-5.636-.274-.338-1.346-.707-2.321-.677-4.16.125-8.393.35-12.488.566q-2.595.142-5.19.27c-1.454.074-2.396.705-3.044 2.054a2361 2361 0 0 1-7.643 15.773c-.68 1.39-.574 2.576.363 3.962 3.174 4.707 6.376 9.536 9.788 14.766 1.08 1.66 2.208 1.801 2.96 1.763 4.873-.246 9.745-.525 14.615-.804l4.934-.279.786-.523c.807-1.638 1.622-3.277 2.434-4.913 2.024-4.073 4.117-8.284 6.078-12.469 1.189-2.3-.848-5.544-3.456-5.378-5.945.175-11.992.55-17.837.91l-1.788.108c-.197.057-.65.498-.796.639-.133.214-.276.653-.406.91-1.21 2.48-.87 4.16 1.208 5.988"/></g></g></g><path fill="#fff" d="M84.615 74.644q-.089 1.95-1.095 2.947-1.008.998-2.849.997-1.93 0-2.957-1.268-1.02-1.267-1.019-3.618v-1.907q-.001-2.349 1.062-3.618 1.061-1.268 2.947-1.268 1.86 0 2.827 1.04.964 1.041 1.094 2.98h-2.307q-.024-1.203-.368-1.658-.337-.455-1.246-.455-.922 0-1.3.65-.38.642-.412 2.112v2.145q-.001 1.703.38 2.34.376.63 1.3.629.908 0 1.245-.444.345-.444.4-1.604zM85.648 73.94q0-1.916.91-3.012.909-1.093 2.502-1.094 1.624.001 2.524 1.094.91 1.098.91 3.023v.542q0 1.93-.899 3.011-.901 1.084-2.513 1.084-1.624.001-2.535-1.084-.9-1.093-.9-3.022zm2.22.553q0 2.264 1.214 2.264 1.113 0 1.202-1.885l.011-.932q0-1.158-.325-1.712-.325-.561-.91-.563-.552.002-.877.563-.317.554-.315 1.712zM95.886 69.986l.065.834q.746-.984 1.96-.986 2.177 0 2.232 3.055v5.547h-2.21v-5.384q0-.724-.217-1.04-.218-.325-.758-.325-.598 0-.931.617v6.132h-2.221v-8.45zM105.464 76.172q-.001-.28-.271-.52-.26-.236-1.192-.64-1.365-.561-1.885-1.148-.51-.593-.509-1.484-.001-1.105.802-1.82.799-.725 2.123-.726 1.385 0 2.221.715.833.716.834 1.928h-2.199q0-1.028-.867-1.029a.8.8 0 0 0-.574.217q-.228.218-.227.607-.001.283.249.498.247.219 1.181.618 1.353.499 1.906 1.115.562.609.564 1.582-.001 1.137-.856 1.82-.846.683-2.232.683-.933 0-1.647-.358a2.77 2.77 0 0 1-1.105-1.008q-.401-.65-.4-1.397h2.101q.009.576.26.867.26.283.834.281.888.002.889-.801M113.144 77.667q-.695.92-1.842.92-1.17.001-1.776-.79-.597-.801-.596-2.34v-5.471h2.21v5.525q.02 1.235.823 1.235.756 0 1.094-.65v-6.11h2.221v8.45h-2.08zM119.168 78.436h-2.21V66.443h2.21zM123.444 67.906v2.08h1.138v1.668h-1.138v4.193q0 .5.141.682.14.186.531.184.313.002.52-.054l-.022 1.723a3.5 3.5 0 0 1-1.213.206q-2.136 0-2.167-2.449v-4.485h-.975v-1.668h.975v-2.08zM125.526 73.94q0-1.916.91-3.012.909-1.093 2.502-1.094 1.624.001 2.524 1.094.91 1.098.91 3.023v.542q0 1.93-.899 3.011-.901 1.084-2.513 1.084-1.626.001-2.535-1.084-.9-1.093-.899-3.022zm2.22.553q0 2.264 1.214 2.264 1.113 0 1.202-1.885l.011-.932q0-1.158-.325-1.712-.325-.561-.91-.563-.553.002-.877.563-.316.554-.315 1.712zM137.908 72.12l-.736-.065q-.901 0-1.224.802v5.579h-2.21v-8.45h2.08l.065.92q.519-1.072 1.44-1.072.379 0 .607.098zM141.355 78.436h-2.21v-8.45h2.21zm-2.318-10.639q0-.508.325-.834.333-.334.877-.335.552.001.878.335.325.326.325.835 0 .51-.325.844-.326.337-.878.336-.552.001-.877-.335-.325-.334-.325-.846M147.082 78.436q-.097-.195-.195-.661-.586.813-1.603.813-1.063.001-1.766-.694-.694-.702-.693-1.82 0-1.331.845-2.058.845-.724 2.437-.737h.672v-.682q0-.574-.195-.802-.196-.237-.563-.238-.835 0-.834.964h-2.21q0-1.17.877-1.928t2.221-.759q1.397.001 2.156.726.757.717.758 2.058v3.976q.021 1.095.314 1.712v.13zm-1.31-1.582c.243 0 .455-.046.628-.14q.259-.15.379-.358V74.6h-.531q-.563 0-.888.357-.315.359-.314.965 0 .932.726.931M161.744 68.978h-2.816v9.458h-2.297v-9.458h-2.762v-1.906h7.875zM166.36 78.588q-1.703 0-2.654-1.008-.955-1.017-.954-2.903v-.672q0-2.002.878-3.087c.585-.72 1.419-1.084 2.502-1.084q1.591.001 2.395 1.019.811 1.02.823 3.011v1.094h-4.398q.053.934.422 1.365.366.434 1.127.434 1.105 0 1.852-.759l.867 1.333q-.414.565-1.181.91a4.06 4.06 0 0 1-1.679.347m-1.387-5.179h2.21v-.206q-.024-.756-.26-1.148-.228-.39-.801-.39-.578 0-.845.422-.262.413-.304 1.322M173.65 76.757q.963 0 .975-1.246h2.08q-.023 1.378-.856 2.232-.836.845-2.155.845-1.626 0-2.492-1.008-.858-1.016-.867-2.99v-.672q0-1.992.845-3.033.846-1.05 2.503-1.05 1.396 0 2.199.866.8.857.823 2.437h-2.08q-.011-.701-.238-1.083-.22-.39-.748-.39-.576 0-.823.412-.251.414-.271 1.592v.856q0 1.031.098 1.44.106.413.336.608.236.185.671.184M180.102 70.733q.715-.898 1.766-.899 1.158 0 1.755.813.606.813.607 2.415v5.374h-2.21v-5.352q-.001-.736-.238-1.062-.229-.334-.737-.335-.61 0-.943.552v6.197h-2.21V66.443h2.21zM193.515 78.436q-.098-.195-.195-.661-.586.813-1.603.813-1.064.001-1.766-.694-.694-.702-.693-1.82 0-1.331.845-2.058.845-.724 2.437-.737h.672v-.682q0-.574-.195-.802-.197-.237-.563-.238-.836 0-.835.964h-2.21q0-1.17.878-1.928.876-.758 2.221-.759 1.396.001 2.156.726.756.717.758 2.058v3.976q.021 1.095.314 1.712v.13zm-1.311-1.582q.367 0 .629-.14.259-.15.379-.358V74.6h-.531q-.564 0-.888.357-.315.359-.314.965 0 .932.725.931M199.045 69.986l.065.834q.747-.984 1.961-.986 2.175 0 2.231 3.055v5.547h-2.21v-5.384q0-.724-.216-1.04-.219-.325-.759-.325-.597 0-.931.617v6.132h-2.221v-8.45zM204.593 73.95q-.001-2.067.704-3.087.703-1.028 2.048-1.029.974 0 1.614.845v-4.236h2.232v11.993h-2.005l-.108-.856q-.673 1.008-1.744 1.008-1.333 0-2.037-1.008-.696-1.016-.704-2.99zm2.221.553q0 1.26.26 1.755.269.488.899.488.649 0 .986-.585v-3.857q-.326-.618-.975-.617-.618 0-.899.487-.272.488-.271 1.744zM218.895 74.438v3.998h-2.297V67.072h3.879q1.678.002 2.686 1.05 1.008 1.042 1.008 2.709 0 1.669-.997 2.643-.988.966-2.751.964zm0-1.917h1.582q.65 0 1.007-.423.367-.431.369-1.256-.002-.845-.369-1.344a1.19 1.19 0 0 0-.986-.52h-1.603zM228.994 78.588q-1.703 0-2.654-1.008-.955-1.017-.954-2.903v-.672q0-2.002.878-3.087c.585-.72 1.419-1.084 2.502-1.084q1.591.001 2.395 1.019.811 1.02.823 3.011v1.094h-4.398q.053.934.422 1.365.366.434 1.127.434 1.105 0 1.852-.759l.867 1.333q-.413.565-1.181.91a4.06 4.06 0 0 1-1.679.347m-1.387-5.179h2.21v-.206q-.024-.756-.26-1.148-.227-.39-.801-.39-.578 0-.845.422-.262.413-.304 1.322M232.969 73.94q0-1.916.91-3.012.91-1.093 2.503-1.094 1.623.001 2.524 1.094.91 1.098.91 3.023v.542q-.001 1.93-.899 3.011-.902 1.084-2.514 1.084-1.624.001-2.535-1.084-.9-1.093-.899-3.022zm2.221.553q0 2.264 1.213 2.264 1.113 0 1.203-1.885l.011-.932q0-1.158-.325-1.712-.325-.561-.91-.563-.553.002-.878.563-.315.554-.314 1.712zM247.768 74.482q0 1.983-.683 3.044-.683 1.063-2.036 1.062-1.032.001-1.658-.835v3.933h-2.21v-11.7h2.048l.075.78q.638-.931 1.734-.932 1.342.001 2.026.986.681.976.704 3.012zm-2.199-.564q-.001-1.223-.271-1.722-.273-.51-.91-.51-.683.001-.997.564v3.965q.3.543 1.008.542.657 0 .91-.553.26-.552.26-1.722zM251.413 78.436h-2.21V66.443h2.21zM256.534 78.588q-1.703 0-2.654-1.008-.955-1.017-.954-2.903v-.672q0-2.002.878-3.087c.585-.72 1.419-1.084 2.502-1.084q1.591.001 2.394 1.019.812 1.02.824 3.011v1.094h-4.399q.053.934.423 1.365.366.434 1.127.434 1.104 0 1.852-.759l.867 1.333q-.413.565-1.181.91a4.1 4.1 0 0 1-1.679.347m-1.387-5.179h2.21v-.206q-.024-.756-.26-1.148-.228-.39-.802-.39-.576 0-.845.422-.261.413-.303 1.322M86.733 51.221V31.992l4.637-4.648h16.174l4.637 4.648v19.23h-4.637v-9.62H91.37v9.62zm4.637-14.256h16.174v-4.973H91.37zM122.111 51.221l-4.636-4.647v-19.23h4.636v19.23h14.929v4.647zM146.937 60.505l.032-4.636h15.34V51.22h-15.34l-4.636-4.647V31.992l4.636-4.648h15.34l4.648 4.648v23.877l-4.648 4.636zm.032-13.931h15.34V31.992h-15.34zM172.246 51.221V31.992l4.636-4.648h16.174l4.637 4.648v19.23h-4.637v-9.62h-16.174v9.62zm4.636-14.256h16.174v-4.973h-16.174zM202.987 51.221V31.992l4.637-4.648h18.243v4.648h-18.243v19.23z"/></g><defs><clipPath id="a"><path fill="#fff" d="M0 0h260v81.64H0z"/></clipPath></defs></svg>