<svg width="240" height="82" viewBox="0 0 260 82" fill="none" xmlns="http://www.w3.org/2000/svg">
<g clip-path="url(#clip0_56_193)">
<mask id="mask0_56_193" style="mask-type:luminance" maskUnits="userSpaceOnUse" x="4" y="0" width="80" height="80">
<path d="M4.16003 0.17334H83.8934V79.9067H4.16003V0.17334Z" fill="white"/>
</mask>
<g mask="url(#mask0_56_193)">
<mask id="mask1_56_193" style="mask-type:luminance" maskUnits="userSpaceOnUse" x="-11" y="-15" width="111" height="111">
<path d="M99.0439 51.1902L32.8685 95.0571L-10.9984 28.879L55.1797 -14.9879L99.0439 51.1902Z" fill="white"/>
</mask>
<g mask="url(#mask1_56_193)">
<mask id="mask2_56_193" style="mask-type:luminance" maskUnits="userSpaceOnUse" x="-11" y="-16" width="111" height="112">
<path d="M32.9011 95.0354L99.0765 51.1685L55.2096 -15.0069L-10.9658 28.86L32.9011 95.0354Z" fill="white"/>
</mask>
<g mask="url(#mask2_56_193)">
<path d="M65.9724 73.1114C47.7372 85.2014 23.067 80.1992 10.977 61.9639C-1.11027 43.726 3.89202 19.0558 22.1272 6.96852C40.3624 -5.12148 65.0327 -0.119187 77.1227 18.116C89.2099 36.3539 84.2104 61.0242 65.9724 73.1114ZM50.3345 49.6167C50.2397 49.6681 49.9093 49.8062 49.0399 49.8739C46.1556 50.0906 43.2874 50.1746 40.4139 50.3533C39.3197 50.421 38.6724 50.096 38.0983 49.1914C36.671 46.8921 35.5145 45.2183 34.6668 43.9969C33.4751 42.2744 32.8197 41.3237 32.771 40.6304C32.7249 39.9398 33.2449 38.9052 34.1929 37.031C34.8293 35.7635 35.7041 34.0302 36.7468 31.7037C37.2397 30.6069 37.8545 30.2006 39.0976 30.1491C45.5435 29.8621 52.5147 29.5371 59.8354 29.0875C60.7427 29.0577 61.2952 27.9446 60.7724 27.2025C60.2822 26.4604 59.8083 25.721 59.3424 24.9925C58.1318 23.0966 56.9862 21.3064 55.6185 19.6191C54.6895 18.4762 52.7504 18.0023 51.3393 18.0456C45.3756 18.2244 39.5201 18.5927 33.616 18.8825C32.4487 18.9421 31.4358 19.2535 30.5854 19.8169C29.7214 20.391 29.0254 21.2252 28.4999 22.3139C26.0949 27.3244 23.5979 32.4783 20.8624 38.0683C19.7954 40.2539 19.9687 42.3421 21.396 44.4573C24.562 49.1535 27.7579 53.9744 31.1622 59.1933C32.4704 61.1975 34.1929 62.1589 36.2783 62.0533C41.1587 61.8069 46.0337 61.5279 50.9114 61.2517L56.171 60.951C56.3849 60.9402 56.5935 60.8725 56.7722 60.7533L58.1074 59.8677C59.2666 58.4594 60.1279 55.8756 61.1002 54.191C63.1314 50.1069 65.2304 45.8819 67.202 41.6731C69.1899 37.8056 65.8343 32.5623 61.4766 32.8331C55.4912 33.0091 49.4272 33.3856 43.561 33.7485L41.7356 33.8596C40.0781 34.0952 39.0029 35.4385 38.537 36.7656C36.8362 40.2539 37.4076 43.076 40.3299 45.6435C41.137 46.3558 42.3666 46.4235 43.0274 46.3992C46.0147 46.2962 49.1754 46.1283 52.3252 45.9739C51.6427 47.3362 51.0468 48.5198 50.3345 49.6167ZM41.9279 43.8181C42.0037 43.8723 42.3666 43.9914 42.9435 43.9725C45.6031 43.8804 48.2979 43.745 51.1497 43.6014L54.2968 43.4444C55.2014 43.3712 55.8785 44.4275 55.4316 45.2183C54.4024 47.1873 53.4952 49.2267 52.3197 51.0196C51.8268 51.7698 50.8437 52.176 49.2214 52.2952C46.3127 52.5146 43.4554 52.5985 40.5656 52.7773C38.6047 52.8992 37.0854 52.13 36.0399 50.4833C34.6397 48.2273 33.4995 46.5806 32.6681 45.3808C29.6862 41.0664 29.6564 40.625 32.0235 35.9369C32.6843 34.6233 33.5104 32.9875 34.5287 30.7125C35.3926 28.7869 36.8551 27.8119 38.992 27.7225C44.8095 27.4652 51.0604 27.1754 57.6064 26.7881C56.347 24.8219 55.1202 22.861 53.7308 21.1521C53.4572 20.8135 52.3847 20.4452 51.4097 20.475C47.2497 20.5996 43.0166 20.8244 38.9216 21.041C37.191 21.1358 35.4631 21.2252 33.7324 21.3119C32.2781 21.385 31.3356 22.016 30.6883 23.3648C28.2806 28.3833 25.7808 33.5427 23.0454 39.1381C22.3656 40.5275 22.4712 41.7137 23.4083 43.1004C26.5824 47.8075 29.7837 52.6364 33.1962 57.8662C34.2768 59.5264 35.4035 59.6673 36.1564 59.6294C41.0287 59.3829 45.901 59.1039 50.7706 58.825L55.7052 58.546L56.4906 58.0233C57.2977 56.3848 58.1129 54.7462 58.9254 53.1104C60.9485 49.0371 63.042 44.8256 65.0029 40.6412C66.1918 38.3419 64.1552 35.0973 61.547 35.2625C55.6022 35.4385 49.5545 35.8123 43.7099 36.1725L41.9224 36.2808C41.7247 36.3377 41.2724 36.7791 41.1262 36.92C40.9935 37.1339 40.8499 37.5727 40.7199 37.83C39.5093 40.3108 39.8506 41.99 41.9279 43.8181Z" fill="white"/>
</g>
</g>
</g>
<path d="M84.6145 74.6442C84.5549 75.9442 84.192 76.9273 83.5203 77.5908C82.8486 78.2571 81.898 78.5875 80.6711 78.5875C79.3847 78.5875 78.3989 78.165 77.7136 77.32C77.0339 76.475 76.6953 75.2698 76.6953 73.7017V71.795C76.6953 70.2296 77.0474 69.0217 77.757 68.1767C78.4639 67.3317 79.447 66.9092 80.7036 66.9092C81.9441 66.9092 82.8866 67.2558 83.5311 67.9492C84.173 68.6425 84.5386 69.6365 84.6253 70.9283H82.3178C82.3016 70.1267 82.1797 69.5742 81.9495 69.2708C81.7247 68.9675 81.3103 68.8158 80.7036 68.8158C80.0889 68.8158 79.6555 69.0325 79.4036 69.4658C79.1491 69.8938 79.0136 70.5979 78.992 71.5783V73.7233C78.992 74.8581 79.1166 75.6381 79.3711 76.0633C79.623 76.4831 80.0564 76.6917 80.6711 76.6917C81.2778 76.6917 81.6922 76.5454 81.917 76.2475C82.1472 75.9523 82.2799 75.4188 82.3178 74.6442H84.6145Z" fill="white"/>
<path d="M85.6477 73.94C85.6477 72.6617 85.951 71.6596 86.5577 70.9284C87.1644 70.1998 87.9985 69.8342 89.0602 69.8342C90.1435 69.8342 90.9831 70.1998 91.5844 70.9284C92.191 71.6596 92.4944 72.6671 92.4944 73.9509V74.4925C92.4944 75.779 92.1937 76.7838 91.5952 77.5042C90.994 78.2273 90.1571 78.5875 89.0819 78.5875C87.9985 78.5875 87.1535 78.2273 86.5469 77.5042C85.9456 76.7757 85.6477 75.7682 85.6477 74.4817V73.94ZM87.8685 74.4925C87.8685 76.0038 88.2721 76.7567 89.0819 76.7567C89.824 76.7567 90.2248 76.1284 90.2844 74.8717L90.2952 73.94C90.2952 73.1682 90.1869 72.5967 89.9702 72.2284C89.7535 71.8546 89.4502 71.665 89.0602 71.665C88.6919 71.665 88.3994 71.8546 88.1827 72.2284C87.9715 72.5967 87.8685 73.1682 87.8685 73.94V74.4925Z" fill="white"/>
<path d="M95.8857 69.9859L95.9507 70.82C96.449 70.1646 97.1017 69.8342 97.9115 69.8342C99.3632 69.8342 100.105 70.8525 100.143 72.8892V78.4359H97.9332V73.0517C97.9332 72.5696 97.86 72.2229 97.7165 72.0117C97.5702 71.795 97.3184 71.6867 96.9582 71.6867C96.56 71.6867 96.2486 71.8925 96.0265 72.3042V78.4359H93.8057V69.9859H95.8857Z" fill="white"/>
<path d="M105.464 76.1717C105.464 75.9848 105.372 75.8115 105.193 75.6517C105.02 75.4946 104.622 75.2807 104.001 75.0125C103.091 74.6388 102.463 74.2542 102.116 73.8642C101.775 73.4688 101.607 72.9732 101.607 72.38C101.607 71.6434 101.873 71.0367 102.409 70.56C102.942 70.0779 103.649 69.8342 104.532 69.8342C105.456 69.8342 106.195 70.0725 106.753 70.5492C107.308 71.0259 107.587 71.6704 107.587 72.4775H105.388C105.388 71.7923 105.098 71.4484 104.521 71.4484C104.288 71.4484 104.099 71.5215 103.947 71.665C103.795 71.8113 103.72 72.0117 103.72 72.2717C103.72 72.4613 103.801 72.6265 103.969 72.77C104.134 72.9163 104.527 73.1221 105.15 73.3875C106.052 73.7207 106.688 74.0917 107.056 74.5034C107.43 74.9096 107.62 75.435 107.62 76.085C107.62 76.8434 107.333 77.45 106.764 77.905C106.2 78.36 105.456 78.5875 104.532 78.5875C103.909 78.5875 103.362 78.4684 102.885 78.23C102.414 77.9863 102.046 77.6504 101.78 77.2225C101.512 76.7892 101.38 76.3234 101.38 75.825H103.481C103.487 76.2096 103.573 76.4967 103.741 76.6917C103.915 76.8813 104.191 76.9734 104.575 76.9734C105.166 76.9734 105.464 76.7079 105.464 76.1717Z" fill="white"/>
<path d="M113.144 77.6667C112.681 78.2815 112.066 78.5875 111.302 78.5875C110.522 78.5875 109.929 78.3248 109.526 77.7967C109.127 77.2632 108.93 76.4832 108.93 75.4567V69.9859H111.14V75.5109C111.153 76.3342 111.427 76.7459 111.963 76.7459C112.467 76.7459 112.832 76.5292 113.057 76.0959V69.9859H115.278V78.4359H113.198L113.144 77.6667Z" fill="white"/>
<path d="M119.168 78.4359H116.958V66.4434H119.168V78.4359Z" fill="white"/>
<path d="M123.444 67.9059V69.9859H124.582V71.6542H123.444V75.8467C123.444 76.1798 123.49 76.4073 123.585 76.5292C123.677 76.6538 123.856 76.7134 124.116 76.7134C124.324 76.7134 124.498 76.6971 124.636 76.6592L124.614 78.3817C124.246 78.5171 123.84 78.5876 123.401 78.5876C121.976 78.5876 121.256 77.7723 121.234 76.1392V71.6542H120.259V69.9859H121.234V67.9059H123.444Z" fill="white"/>
<path d="M125.526 73.94C125.526 72.6617 125.829 71.6596 126.436 70.9284C127.042 70.1998 127.876 69.8342 128.938 69.8342C130.021 69.8342 130.861 70.1998 131.462 70.9284C132.069 71.6596 132.372 72.6671 132.372 73.9509V74.4925C132.372 75.779 132.072 76.7838 131.473 77.5042C130.872 78.2273 130.035 78.5875 128.96 78.5875C127.876 78.5875 127.031 78.2273 126.425 77.5042C125.824 76.7757 125.526 75.7682 125.526 74.4817V73.94ZM127.746 74.4925C127.746 76.0038 128.15 76.7567 128.96 76.7567C129.702 76.7567 130.103 76.1284 130.162 74.8717L130.173 73.94C130.173 73.1682 130.065 72.5967 129.848 72.2284C129.631 71.8546 129.328 71.665 128.938 71.665C128.57 71.665 128.277 71.8546 128.061 72.2284C127.849 72.5967 127.746 73.1682 127.746 73.94V74.4925Z" fill="white"/>
<path d="M137.908 72.12L137.172 72.055C136.57 72.055 136.164 72.3232 135.948 72.8567V78.4359H133.738V69.9859H135.818L135.883 70.9067C136.229 70.1917 136.709 69.8342 137.323 69.8342C137.575 69.8342 137.778 69.8667 137.93 69.9317L137.908 72.12Z" fill="white"/>
<path d="M141.355 78.4358H139.145V69.9858H141.355V78.4358ZM139.037 67.7975C139.037 67.459 139.145 67.18 139.362 66.9633C139.584 66.7413 139.876 66.6275 140.239 66.6275C140.607 66.6275 140.9 66.7413 141.117 66.9633C141.333 67.18 141.442 67.459 141.442 67.7975C141.442 68.1388 141.333 68.4204 141.117 68.6425C140.9 68.8673 140.607 68.9783 140.239 68.9783C139.871 68.9783 139.578 68.8673 139.362 68.6425C139.145 68.4204 139.037 68.1388 139.037 67.7975Z" fill="white"/>
<path d="M147.082 78.4359C147.017 78.3059 146.952 78.0865 146.887 77.775C146.497 78.3167 145.961 78.5875 145.284 78.5875C144.575 78.5875 143.987 78.3573 143.518 77.8942C143.055 77.4257 142.825 76.819 142.825 76.0742C142.825 75.1859 143.107 74.5007 143.67 74.0159C144.233 73.5338 145.046 73.2873 146.107 73.2792H146.779V72.5967C146.779 72.2148 146.714 71.9467 146.584 71.795C146.454 71.6379 146.265 71.5567 146.021 71.5567C145.463 71.5567 145.187 71.879 145.187 72.5209H142.977C142.977 71.7409 143.269 71.099 143.854 70.5925C144.439 70.0888 145.178 69.8342 146.075 69.8342C147.007 69.8342 147.724 70.0779 148.231 70.56C148.735 71.0367 148.989 71.7246 148.989 72.6184V76.5942C149.003 77.3254 149.108 77.8942 149.303 78.3059V78.4359H147.082ZM145.772 76.8542C146.015 76.8542 146.227 76.8082 146.4 76.7134C146.573 76.6132 146.698 76.494 146.779 76.3559V74.6009H146.248C145.872 74.6009 145.577 74.72 145.36 74.9584C145.149 75.1967 145.046 75.519 145.046 75.9225C145.046 76.5454 145.287 76.8542 145.772 76.8542Z" fill="white"/>
<path d="M161.744 68.9784H158.928V78.4359H156.631V68.9784H153.869V67.0717H161.744V68.9784Z" fill="white"/>
<path d="M166.36 78.5875C165.225 78.5875 164.34 78.2517 163.706 77.58C163.069 76.9029 162.752 75.9334 162.752 74.6767V74.005C162.752 72.6698 163.045 71.6407 163.63 70.9175C164.215 70.1971 165.049 69.8342 166.132 69.8342C167.194 69.8342 167.99 70.1754 168.527 70.8525C169.068 71.5323 169.342 72.5371 169.35 73.8642V74.9584H164.952C164.987 75.5813 165.128 76.0363 165.374 76.3234C165.618 76.6132 165.994 76.7567 166.501 76.7567C167.237 76.7567 167.855 76.5048 168.353 75.9984L169.22 77.3309C168.944 77.7073 168.551 78.0107 168.039 78.2409C167.525 78.4711 166.967 78.5875 166.36 78.5875ZM164.973 73.4092H167.183V73.2034C167.167 72.6996 167.08 72.315 166.923 72.055C166.772 71.795 166.503 71.665 166.122 71.665C165.737 71.665 165.455 71.8059 165.277 72.0875C165.103 72.3638 165 72.8025 164.973 73.4092Z" fill="white"/>
<path d="M173.65 76.7567C174.292 76.7567 174.617 76.3423 174.625 75.5109H176.705C176.689 76.429 176.405 77.1738 175.849 77.7425C175.291 78.3059 174.574 78.5875 173.694 78.5875C172.61 78.5875 171.779 78.2517 171.202 77.58C170.63 76.9029 170.341 75.9063 170.335 74.59V73.9184C170.335 72.5913 170.617 71.5784 171.18 70.885C171.744 70.1863 172.578 69.8342 173.683 69.8342C174.614 69.8342 175.346 70.124 175.882 70.7009C176.415 71.2723 176.689 72.0848 176.705 73.1384H174.625C174.617 72.6698 174.539 72.3096 174.387 72.055C174.241 71.795 173.991 71.665 173.639 71.665C173.255 71.665 172.981 71.8032 172.816 72.0767C172.648 72.3529 172.559 72.8838 172.545 73.6692V74.525C172.545 75.2129 172.578 75.6923 172.643 75.9659C172.713 76.2421 172.827 76.4425 172.979 76.5725C173.136 76.6971 173.36 76.7567 173.65 76.7567Z" fill="white"/>
<path d="M180.102 70.7334C180.579 70.1348 181.167 69.8342 181.868 69.8342C182.64 69.8342 183.225 70.105 183.623 70.6467C184.027 71.1884 184.23 71.9954 184.23 73.0625V78.4359H182.02V73.0842C182.02 72.594 181.939 72.2392 181.782 72.0225C181.63 71.8004 181.383 71.6867 181.045 71.6867C180.639 71.6867 180.324 71.8709 180.102 72.2392V78.4359H177.892V66.4434H180.102V70.7334Z" fill="white"/>
<path d="M193.515 78.4359C193.45 78.3059 193.385 78.0865 193.32 77.775C192.93 78.3167 192.394 78.5875 191.717 78.5875C191.007 78.5875 190.42 78.3573 189.951 77.8942C189.488 77.4257 189.258 76.819 189.258 76.0742C189.258 75.1859 189.539 74.5007 190.103 74.0159C190.666 73.5338 191.479 73.2873 192.54 73.2792H193.212V72.5967C193.212 72.2148 193.147 71.9467 193.017 71.795C192.887 71.6379 192.697 71.5567 192.454 71.5567C191.896 71.5567 191.619 71.879 191.619 72.5209H189.409C189.409 71.7409 189.702 71.099 190.287 70.5925C190.872 70.0888 191.611 69.8342 192.508 69.8342C193.439 69.8342 194.157 70.0779 194.664 70.56C195.167 71.0367 195.422 71.7246 195.422 72.6184V76.5942C195.436 77.3254 195.541 77.8942 195.736 78.3059V78.4359H193.515ZM192.204 76.8542C192.448 76.8542 192.659 76.8082 192.833 76.7134C193.006 76.6132 193.131 76.494 193.212 76.3559V74.6009H192.681C192.305 74.6009 192.009 74.72 191.793 74.9584C191.582 75.1967 191.479 75.519 191.479 75.9225C191.479 76.5454 191.72 76.8542 192.204 76.8542Z" fill="white"/>
<path d="M199.045 69.9859L199.11 70.82C199.608 70.1646 200.261 69.8342 201.071 69.8342C202.522 69.8342 203.264 70.8525 203.302 72.8892V78.4359H201.092V73.0517C201.092 72.5696 201.019 72.2229 200.876 72.0117C200.729 71.795 200.478 71.6867 200.117 71.6867C199.719 71.6867 199.408 71.8925 199.186 72.3042V78.4359H196.965V69.9859H199.045Z" fill="white"/>
<path d="M204.593 73.9509C204.593 72.5723 204.826 71.5432 205.297 70.8634C205.766 70.1782 206.448 69.8342 207.345 69.8342C207.995 69.8342 208.531 70.1159 208.959 70.6792V66.4434H211.191V78.4359H209.186L209.078 77.58C208.628 78.2517 208.049 78.5875 207.334 78.5875C206.446 78.5875 205.766 78.2517 205.297 77.58C204.834 76.9029 204.598 75.9063 204.593 74.59V73.9509ZM206.814 74.5034C206.814 75.3429 206.901 75.9279 207.074 76.2584C207.253 76.5834 207.553 76.7459 207.973 76.7459C208.406 76.7459 208.734 76.5509 208.959 76.1609V72.3042C208.742 71.8925 208.417 71.6867 207.984 71.6867C207.572 71.6867 207.272 71.8492 207.085 72.1742C206.903 72.4992 206.814 73.0815 206.814 73.9184V74.5034Z" fill="white"/>
<path d="M218.895 74.4384V78.4359H216.598V67.0717H220.477C221.595 67.0717 222.492 67.4238 223.163 68.1225C223.835 68.8159 224.171 69.7204 224.171 70.8309C224.171 71.944 223.838 72.8242 223.174 73.4742C222.516 74.1188 221.598 74.4384 220.423 74.4384H218.895ZM218.895 72.5209H220.477C220.91 72.5209 221.246 72.38 221.484 72.0984C221.728 71.8113 221.853 71.3915 221.853 70.8417C221.853 70.2784 221.728 69.8315 221.484 69.4984C221.238 69.1598 220.91 68.9865 220.498 68.9784H218.895V72.5209Z" fill="white"/>
<path d="M228.994 78.5875C227.859 78.5875 226.974 78.2517 226.34 77.58C225.703 76.9029 225.386 75.9334 225.386 74.6767V74.005C225.386 72.6698 225.679 71.6407 226.264 70.9175C226.849 70.1971 227.683 69.8342 228.766 69.8342C229.828 69.8342 230.624 70.1754 231.161 70.8525C231.702 71.5323 231.976 72.5371 231.984 73.8642V74.9584H227.586C227.621 75.5813 227.762 76.0363 228.008 76.3234C228.252 76.6132 228.628 76.7567 229.135 76.7567C229.871 76.7567 230.489 76.5048 230.987 75.9984L231.854 77.3309C231.578 77.7073 231.185 78.0107 230.673 78.2409C230.159 78.4711 229.601 78.5875 228.994 78.5875ZM227.607 73.4092H229.817V73.2034C229.801 72.6996 229.714 72.315 229.557 72.055C229.406 71.795 229.138 71.665 228.756 71.665C228.371 71.665 228.089 71.8059 227.911 72.0875C227.737 72.3638 227.634 72.8025 227.607 73.4092Z" fill="white"/>
<path d="M232.969 73.94C232.969 72.6617 233.273 71.6596 233.879 70.9284C234.486 70.1998 235.32 69.8342 236.382 69.8342C237.465 69.8342 238.305 70.1998 238.906 70.9284C239.513 71.6596 239.816 72.6671 239.816 73.9509V74.4925C239.816 75.779 239.515 76.7838 238.917 77.5042C238.315 78.2273 237.479 78.5875 236.403 78.5875C235.32 78.5875 234.475 78.2273 233.868 77.5042C233.267 76.7757 232.969 75.7682 232.969 74.4817V73.94ZM235.19 74.4925C235.19 76.0038 235.594 76.7567 236.403 76.7567C237.145 76.7567 237.546 76.1284 237.606 74.8717L237.617 73.94C237.617 73.1682 237.508 72.5967 237.292 72.2284C237.075 71.8546 236.772 71.665 236.382 71.665C236.013 71.665 235.721 71.8546 235.504 72.2284C235.293 72.5967 235.19 73.1682 235.19 73.94V74.4925Z" fill="white"/>
<path d="M247.768 74.4817C247.768 75.8034 247.54 76.819 247.085 77.5259C246.63 78.2354 245.951 78.5875 245.049 78.5875C244.361 78.5875 243.808 78.3113 243.391 77.7534V81.6859H241.181V69.9859H243.229L243.304 70.7659C243.73 70.1457 244.307 69.8342 245.038 69.8342C245.932 69.8342 246.609 70.1646 247.064 70.82C247.519 71.47 247.752 72.4748 247.768 73.8317V74.4817ZM245.569 73.9184C245.569 73.1032 245.477 72.529 245.298 72.1959C245.116 71.8573 244.813 71.6867 244.388 71.6867C243.933 71.6867 243.6 71.8763 243.391 72.25V76.215C243.592 76.5779 243.927 76.7567 244.399 76.7567C244.837 76.7567 245.141 76.5725 245.309 76.2042C245.482 75.8359 245.569 75.2617 245.569 74.4817V73.9184Z" fill="white"/>
<path d="M251.413 78.4359H249.203V66.4434H251.413V78.4359Z" fill="white"/>
<path d="M256.534 78.5875C255.399 78.5875 254.513 78.2517 253.88 77.58C253.243 76.9029 252.926 75.9334 252.926 74.6767V74.005C252.926 72.6698 253.219 71.6407 253.804 70.9175C254.389 70.1971 255.223 69.8342 256.306 69.8342C257.368 69.8342 258.164 70.1754 258.7 70.8525C259.242 71.5323 259.516 72.5371 259.524 73.8642V74.9584H255.125C255.161 75.5813 255.301 76.0363 255.548 76.3234C255.792 76.6132 256.168 76.7567 256.675 76.7567C257.411 76.7567 258.029 76.5048 258.527 75.9984L259.394 77.3309C259.118 77.7073 258.725 78.0107 258.213 78.2409C257.698 78.4711 257.14 78.5875 256.534 78.5875ZM255.147 73.4092H257.357V73.2034C257.341 72.6996 257.254 72.315 257.097 72.055C256.945 71.795 256.677 71.665 256.295 71.665C255.911 71.665 255.629 71.8059 255.45 72.0875C255.277 72.3638 255.174 72.8025 255.147 73.4092Z" fill="white"/>
<path d="M86.7332 51.2211V31.992L91.3698 27.3445H107.544L112.181 31.992V51.2211H107.544V41.6011H91.3698V51.2211H86.7332ZM91.3698 36.9645H107.544V31.992H91.3698V36.9645Z" fill="white"/>
<path d="M122.111 51.2211L117.475 46.5736V27.3445H122.111V46.5736H137.04V51.2211H122.111Z" fill="white"/>
<path d="M146.937 60.5053L146.969 55.8687H162.309V51.2212H146.969L142.333 46.5737V31.992L146.969 27.3445H162.309L166.957 31.992V55.8687L162.309 60.5053H146.937ZM146.969 46.5737H162.309V31.992H146.969V46.5737Z" fill="white"/>
<path d="M172.246 51.2211V31.992L176.882 27.3445H193.056L197.693 31.992V51.2211H193.056V41.6011H176.882V51.2211H172.246ZM176.882 36.9645H193.056V31.992H176.882V36.9645Z" fill="white"/>
<path d="M202.987 51.2211V31.992L207.624 27.3445H225.867V31.992H207.624V51.2211H202.987Z" fill="white"/>
</g>
<defs>
<clipPath id="clip0_56_193">
<rect width="260" height="81.64" fill="white"/>
</clipPath>
</defs>
</svg>
