<svg xmlns="http://www.w3.org/2000/svg" width="32" height="32" viewBox="0 0 36 36" fill="none">
  <path d="M31.5 9.5625C29.8595 9.56064 28.2868 8.90815 27.1268 7.74817C25.9669 6.58819 25.3144 5.01546 25.3125 3.375C25.3125 2.92745 25.1347 2.49822 24.8182 2.18176C24.5018 1.86529 24.0726 1.6875 23.625 1.6875H18C17.5524 1.6875 17.1232 1.86529 16.8068 2.18176C16.4903 2.49822 16.3125 2.92745 16.3125 3.375V21.9375C16.3122 22.3401 16.2039 22.7353 15.9989 23.0819C15.7938 23.4284 15.4996 23.7135 15.1468 23.9075C14.7939 24.1016 14.3955 24.1974 13.9931 24.185C13.5906 24.1725 13.1989 24.0523 12.8587 23.8369C12.5186 23.6215 12.2424 23.3188 12.0591 22.9603C11.8759 22.6018 11.7921 22.2006 11.8167 21.7987C11.8413 21.3969 11.9732 21.0089 12.1988 20.6754C12.4244 20.3419 12.7353 20.075 13.0992 19.9027C13.3875 19.7657 13.631 19.5497 13.8015 19.2799C13.972 19.0101 14.0625 18.6975 14.0625 18.3783V12.375C14.0624 12.1284 14.0083 11.8849 13.9039 11.6615C13.7996 11.4381 13.6476 11.2403 13.4586 11.082C13.2695 10.9237 13.0481 10.8087 12.8099 10.7452C12.5717 10.6816 12.3224 10.6711 12.0797 10.7142C9.48056 11.1897 7.13448 12.572 5.45906 14.6152C3.75297 16.6743 2.8172 19.2634 2.8125 21.9375C2.8125 24.9212 3.99776 27.7827 6.10755 29.8925C8.21733 32.0022 11.0788 33.1875 14.0625 33.1875C17.0462 33.1875 19.9077 32.0022 22.0175 29.8925C24.1272 27.7827 25.3125 24.9212 25.3125 21.9375V17.2505C27.2594 18.1193 29.368 18.5665 31.5 18.5625C31.9476 18.5625 32.3768 18.3847 32.6932 18.0682C33.0097 17.7518 33.1875 17.3226 33.1875 16.875V11.25C33.1875 10.8024 33.0097 10.3732 32.6932 10.0568C32.3768 9.74029 31.9476 9.5625 31.5 9.5625ZM29.8125 15.068C27.9335 14.8022 26.1476 14.0825 24.6094 12.9712C24.3571 12.7901 24.0597 12.682 23.75 12.659C23.4403 12.636 23.1302 12.6989 22.8539 12.8409C22.5777 12.9828 22.3459 13.1982 22.1842 13.4633C22.0225 13.7285 21.9372 14.0332 21.9375 14.3438V21.9375C21.9375 24.0261 21.1078 26.0291 19.631 27.506C18.1541 28.9828 16.1511 29.8125 14.0625 29.8125C11.9739 29.8125 9.97088 28.9828 8.49403 27.506C7.01719 26.0291 6.1875 24.0261 6.1875 21.9375C6.1927 20.4308 6.61616 18.9551 7.4107 17.6749C8.20524 16.3947 9.33964 15.3603 10.6875 14.6869V17.4375C9.92045 18.0128 9.31318 18.7746 8.92336 19.6506C8.53355 20.5266 8.37412 21.4877 8.46023 22.4427C8.54634 23.3976 8.87512 24.3147 9.41535 25.1068C9.95558 25.899 10.6893 26.5399 11.5469 26.9687C12.4045 27.3974 13.3575 27.5999 14.3153 27.5568C15.2732 27.5137 16.2041 27.2265 17.0197 26.7224C17.8354 26.2183 18.5086 25.5141 18.9755 24.6767C19.4424 23.8392 19.6875 22.8963 19.6875 21.9375V5.0625H22.0866C22.435 6.98353 23.3614 8.75248 24.742 10.133C26.1225 11.5136 27.8915 12.44 29.8125 12.7884V15.068Z" fill="#50CDE4"/>
</svg>