<svg xmlns="http://www.w3.org/2000/svg" width="32" height="32" fill="none" viewBox="0 0 36 36"><path fill="#50CDE4" d="M31.5 9.563a6.195 6.195 0 0 1-6.187-6.188 1.687 1.687 0 0 0-1.688-1.687H18a1.687 1.687 0 0 0-1.687 1.687v18.563a2.251 2.251 0 0 1-4.254 1.022 2.25 2.25 0 0 1 1.04-3.057 1.69 1.69 0 0 0 .963-1.525v-6.003a1.687 1.687 0 0 0-1.982-1.66 11.16 11.16 0 0 0-6.62 3.9 11.5 11.5 0 0 0-2.647 7.323 11.25 11.25 0 1 0 22.5 0V17.25a15.1 15.1 0 0 0 6.187 1.311 1.687 1.687 0 0 0 1.688-1.687V11.25A1.687 1.687 0 0 0 31.5 9.563m-1.687 5.505a11.7 11.7 0 0 1-5.204-2.097 1.688 1.688 0 0 0-2.672 1.373v7.594a7.875 7.875 0 0 1-15.75 0 8.14 8.14 0 0 1 4.5-7.251v2.75a5.625 5.625 0 1 0 9 4.5V5.064h2.4a9.59 9.59 0 0 0 7.726 7.725z"/></svg>